<?xml version="1.0" encoding="UTF-8"?>
<!DOCTYPE svg PUBLIC "-//W3C//DTD SVG 1.1//EN" "http://www.w3.org/Graphics/SVG/1.1/DTD/svg11.dtd">
<svg version="1.1" xmlns="http://www.w3.org/2000/svg" xmlns:xlink="http://www.w3.org/1999/xlink" x="0" y="0" width="1620" height="360" viewBox="0, 0, 1620, 360">
  <defs>
    <linearGradient id="Gradient_1" gradientUnits="userSpaceOnUse" x1="195.878" y1="-59.296" x2="195.878" y2="182.63" gradientTransform="matrix(0.858, 0.514, -0.514, 0.858, 0, 0)">
      <stop offset="0" stop-color="#AB0505"/>
      <stop offset="0.439" stop-color="#FF0000"/>
      <stop offset="1" stop-color="#BE0404"/>
    </linearGradient>
    <radialGradient id="Gradient_2" gradientUnits="userSpaceOnUse" cx="195.878" cy="61.667" r="126.416" gradientTransform="matrix(0.858, 0.514, -0.514, 0.858, 0, 0)">
      <stop offset="0" stop-color="#AB0505"/>
      <stop offset="0.474" stop-color="#FF0000"/>
      <stop offset="1" stop-color="#BE0404"/>
    </radialGradient>
    <radialGradient id="Gradient_3" gradientUnits="userSpaceOnUse" cx="195.878" cy="61.667" r="126.416" gradientTransform="matrix(0.858, 0.514, -0.514, 0.858, 0, 0)">
      <stop offset="0" stop-color="#AB0505"/>
      <stop offset="0.474" stop-color="#FF0000"/>
      <stop offset="1" stop-color="#BE0404"/>
    </radialGradient>
    <radialGradient id="Gradient_4" gradientUnits="userSpaceOnUse" cx="195.878" cy="61.667" r="126.416" gradientTransform="matrix(0.858, 0.514, -0.514, 0.858, 0, 0)">
      <stop offset="0" stop-color="#AB0505"/>
      <stop offset="0.474" stop-color="#FF0000"/>
      <stop offset="1" stop-color="#BE0404"/>
    </radialGradient>
  </defs>
  <g id="Layer_2" display="none">
    <text transform="matrix(1, 0, 0, 1, 762.561, 85.713)">
      <tspan x="-644.184" y="34.5" font-family="Helvetica" font-size="144" fill="#AAAAAA">BayGrape</tspan>
    </text>
  </g>
  <g id="Layer_1">
    <g>
      <g>
        <path d="M81.918,68.263 L115.084,87.968 C115.084,87.969 107.036,92.542 107.036,92.542 C107.036,92.542 106.912,101.474 106.912,101.474 L81.837,86.626 L37.263,110.275 L37.204,161.456 L81.392,188.295 L122.963,166.266 L123.229,105.437 L188.671,70.747 L245.338,105.525 L245.74,174.267 L212.897,193.109 C212.897,193.109 212.582,183.856 212.582,183.856 C212.582,183.856 204.718,179.298 204.718,179.298 L229.387,165.234 L228.974,114.731 L188.59,89.111 L143.425,112.185 L143.188,166.371 L196.367,196.391 L196.046,269.836 L131.169,301.214 L73.18,264.086 L73.346,226.249 C73.347,226.25 81.208,230.415 81.208,230.415 C81.208,230.415 88.249,226.339 88.249,226.339 L88.125,254.712 L131.252,282.391 L177.14,258.777 L177.365,207.424 L133.323,180.247 L81.307,207.741 L20.912,169.982 L20.833,100.306 L81.918,68.263 z" fill="url(#Gradient_1)"/>
        <path d="M207.097,228.435 C207.097,228.435 225.775,218.97 225.775,218.97 C225.775,218.97 226.097,198.165 226.097,198.165 C226.097,198.165 241.824,190.562 241.824,190.562 C241.824,190.562 240.592,225.455 240.592,225.455 C240.592,225.455 207.144,242.647 207.144,242.647 C207.144,242.647 207.098,228.271 207.098,228.271" fill="url(#Gradient_2)"/>
        <path d="M62.018,223.962 C62.018,223.962 61.847,238.333 61.847,238.332 C61.847,238.333 28.555,219.59 28.555,219.59 C28.555,219.59 27.629,184.647 27.629,184.646 C27.629,184.647 43.287,192.979 43.287,192.979 C43.287,192.979 43.426,213.794 43.426,213.794 C43.426,213.794 62.017,224.126 62.017,224.126" fill="url(#Gradient_3)"/>
        <path d="M126.143,56.373 C126.143,56.373 175.429,26.513 175.429,26.513 C175.429,26.513 175.358,42.766 175.358,42.766 C175.358,42.766 143.395,61.938 143.395,61.938 C143.395,61.938 142.881,79.854 142.881,79.854 C142.881,79.854 134.369,86.544 134.369,86.544 C134.369,86.544 125.915,79.979 125.915,79.979 C125.915,79.979 126.123,56.322 126.123,56.322" fill="url(#Gradient_4)"/>
      </g>
      <g>
        <path d="M448.636,213.642 C448.636,184.252 436.227,165.638 408.143,154.209 C426.757,143.759 434.921,128.084 434.921,104.245 C434.921,62.773 411.082,41.546 352.302,41.546 L295.807,41.546 L295.807,282.872 L355.567,282.872 C422.512,282.872 448.636,261.319 448.636,213.642 z M424.144,214.948 C424.144,249.89 402.265,260.993 352.955,260.993 L319.973,260.993 L319.973,167.271 L348.71,167.271 C391.489,167.271 424.144,169.883 424.144,214.948 z M410.429,104.572 C410.429,134.942 394.754,145.392 349.363,145.392 L319.973,145.392 L319.973,63.426 L349.036,63.426 C397.693,63.426 410.429,75.182 410.429,104.572 z" fill="#FFFFFF"/>
        <path d="M619.173,282.872 L619.173,138.672 L599.665,138.672 L599.665,164.243 C585.43,144.208 567.767,135.245 542.723,135.245 C499.49,135.245 466.801,167.934 466.801,211.167 C466.801,254.138 499.753,286.299 544.041,286.299 C568.558,286.299 584.375,278.127 599.665,257.565 L599.665,282.872 z M599.665,210.113 C599.665,242.802 575.412,268.373 544.305,268.373 C511.616,268.373 486.572,242.802 486.572,209.849 C486.572,178.479 511.88,153.171 543.251,153.171 C574.885,153.171 599.665,177.951 599.665,210.113 z" fill="#FFFFFF"/>
        <path d="M774.106,136.958 L753.28,136.958 L704.51,251.897 L658.904,136.958 L637.551,136.958 L693.438,276.413 L669.976,331.774 L690.802,331.774 z" fill="#FFFFFF"/>
        <path d="M997.892,190.631 L866.081,190.631 L866.081,208.469 L974.523,208.469 C967.434,239.62 934.35,266.777 896.014,266.777 C848.489,266.777 810.941,230.035 810.941,183.176 C810.941,135.784 847.964,99.308 895.752,99.308 C925.685,99.308 950.892,113.153 964.283,137.115 L986.077,137.115 C973.211,103.568 936.451,81.203 894.176,81.203 C836.41,81.203 791.248,125.666 791.248,182.643 C791.248,240.152 837.461,284.882 896.802,284.882 C953.78,284.882 995.004,240.152 997.892,190.631 z" fill="#FFFFFF"/>
        <path d="M1085.08,154.489 L1085.08,135.245 C1064.254,136.299 1051.864,143.417 1044.219,159.234 L1044.219,138.672 L1024.711,138.672 L1024.711,282.872 L1044.219,282.872 L1044.219,198.777 C1044.219,171.888 1057.927,157.125 1085.08,154.489 z" fill="#FFFFFF"/>
        <path d="M1241.272,282.872 L1241.272,138.672 L1221.764,138.672 L1221.764,164.243 C1207.528,144.208 1189.866,135.245 1164.822,135.245 C1121.588,135.245 1088.899,167.934 1088.899,211.167 C1088.899,254.137 1121.852,286.299 1166.14,286.299 C1190.657,286.299 1206.474,278.127 1221.764,257.565 L1221.764,282.872 z M1221.764,210.113 C1221.764,242.802 1197.511,268.373 1166.404,268.373 C1133.715,268.373 1108.671,242.802 1108.671,209.849 C1108.671,178.479 1133.978,153.171 1165.349,153.171 C1196.984,153.171 1221.764,177.951 1221.764,210.113 z" fill="#FFFFFF"/>
        <path d="M1426.573,211.167 C1426.573,168.197 1393.621,135.245 1350.651,135.245 C1326.134,135.245 1306.099,145.262 1293.972,163.452 L1293.972,138.672 L1274.465,138.672 L1274.465,333.487 L1293.972,333.487 L1293.972,258.092 C1306.626,276.545 1326.134,286.299 1350.124,286.299 C1393.094,286.299 1426.573,253.347 1426.573,211.167 z M1406.802,211.167 C1406.802,243.593 1382.285,268.373 1350.124,268.373 C1317.171,268.373 1292.654,243.329 1292.654,210.113 C1292.654,178.215 1317.962,153.171 1349.86,153.171 C1382.285,153.171 1406.802,177.951 1406.802,211.167 z" fill="#FFFFFF"/>
        <path d="M1599.167,217.231 C1599.167,166.088 1566.742,135.245 1524.036,135.245 C1482.12,135.245 1449.168,168.197 1449.168,210.113 C1449.168,252.819 1482.647,286.299 1525.354,286.299 C1558.043,286.299 1586.25,262.837 1595.477,235.42 L1575.178,235.42 C1567.006,255.192 1546.707,268.373 1524.827,268.373 C1495.301,268.373 1470.257,245.702 1468.675,217.231 z M1579.659,199.568 L1469.203,199.568 C1474.475,171.888 1496.356,153.171 1523.772,153.171 C1551.716,153.171 1573.069,170.834 1579.659,199.568 z" fill="#FFFFFF"/>
      </g>
    </g>
  </g>
</svg>
